<svg xmlns="http://www.w3.org/2000/svg" xmlns:xlink="http://www.w3.org/1999/xlink" id="Layer_1" data-name="Layer 1" viewBox="0 0 485.91 457.31">
  <defs>
    <style>
      .cls-1 {
        fill: url(#linear-gradient);
      }

      .cls-2 {
        fill: #fff;
      }

      .cls-3 {
        fill: url(#linear-gradient-3);
      }

      .cls-4 {
        fill: url(#linear-gradient-4);
      }

      .cls-5 {
        fill: url(#linear-gradient-2);
      }

      .cls-6 {
        fill: url(#linear-gradient-5);
      }
    </style>
    <linearGradient id="linear-gradient" x1="92.86" y1="219.79" x2="251.06" y2="219.79" gradientUnits="userSpaceOnUse">
      <stop offset="0" stop-color="#8fcb7b"/>
      <stop offset="1" stop-color="#209ad6"/>
    </linearGradient>
    <linearGradient id="linear-gradient-2" x1="246.96" y1="247.67" x2="146.02" y2="247.67" xlink:href="#linear-gradient"/>
    <linearGradient id="linear-gradient-3" x1="246.96" y1="114.08" x2="146.02" y2="114.08" xlink:href="#linear-gradient"/>
    <linearGradient id="linear-gradient-4" x1="186.33" y1="204.03" x2="321.99" y2="204.03" xlink:href="#linear-gradient"/>
    <linearGradient id="linear-gradient-5" x1="257.61" y1="203.29" x2="392.89" y2="203.29" xlink:href="#linear-gradient"/>
  </defs>
  <path class="cls-1" d="M251.06,94.7l-20.91,40.72c-7.4,2.6-14.38,6.42-20.75,11.41-15.28,11.96-24.99,29.15-27.34,48.41-1.21,9.96-.38,19.87,2.37,29.22l-61.85,120.43h-29.72L207.52,121.01h-74.92l-16.22-26.31H251.06Z"/>
  <g>
    <path class="cls-5" d="M186.74,231.1c2.09,5.21,4.81,10.2,8.13,14.88l-9.39,18.27-6.92-17.2,8.17-15.96Z"/>
    <path class="cls-3" d="M272.55,94.7l-18.84,36.68c-5.79,.03-11.47,.73-16.97,2.08l19.85-38.76h15.96Z"/>
  </g>
  <path class="cls-2" d="M227.16,292.2c-13.92,0-25.23,11.31-25.23,25.22v44.97h11.07v-44.97c0-7.81,6.36-14.16,14.17-14.16s14.16,6.35,14.16,14.16-6.35,14.17-14.16,14.17c-2.97,0-5.81-.91-8.22-2.62l-1.88-1.29v12.88c3.16,1.38,6.58,2.1,10.1,2.1,13.91,0,25.23-11.31,25.23-25.23s-11.32-25.22-25.23-25.22Z"/>
  <path class="cls-2" d="M281.81,292.2c-13.92,0-25.23,11.31-25.23,25.22v44.97h11.07v-44.97c0-7.81,6.36-14.16,14.17-14.16s14.16,6.35,14.16,14.16-6.35,14.17-14.16,14.17c-2.97,0-5.81-.91-8.22-2.62l-1.88-1.29v12.88c3.16,1.38,6.58,2.1,10.1,2.1,13.91,0,25.23-11.31,25.23-25.23s-11.32-25.22-25.23-25.22Z"/>
  <path class="cls-2" d="M356.17,328.02c0,8.4-6.84,15.24-15.25,15.24h-45.63c4.46-2.44,8.21-6.01,10.89-10.3h34.74c2.73,0,4.95-2.22,4.95-4.94s-2.22-4.95-4.95-4.95h-15.08c-8.4,0-15.24-6.84-15.24-15.25s6.84-15.24,15.24-15.24h23.11l-7.22,10.3h-15.89c-2.72,0-4.94,2.22-4.94,4.94s2.22,4.95,4.94,4.95h15.08c8.41,0,15.25,6.84,15.25,15.25Z"/>
  <polygon class="cls-2" points="198.78 308.6 198.78 342.32 189.61 319.6 161.9 319.6 167.12 308.54 185.15 308.54 175.29 284.09 144.07 344.89 128.46 344.89 176.01 252.04 198.78 308.6"/>
  <path class="cls-4" d="M321.65,210.69l-22.92-9.65c-.49-7.47-2.85-14.67-6.92-21.01-.76-1.21-1.6-2.38-2.49-3.51-5.29-6.76-12.24-11.74-20.13-14.54-3.08-1.1-6.31-1.87-9.63-2.27-11.84-1.44-23.54,1.8-32.93,9.16-9.4,7.35-15.36,17.92-16.8,29.76-1.44,11.84,1.82,23.54,9.16,32.93,7.36,9.4,17.93,15.36,29.76,16.8,6.41,.78,12.76,.2,18.74-1.69,3.3,4.37,7.13,8.39,11.45,11.98,2.28,1.91,4.66,3.66,7.11,5.25-12.2,6.53-26.08,9.16-40.1,7.44-2.37-.28-4.71-.7-6.99-1.21-15.13-3.45-28.51-11.92-38.21-24.31-11.16-14.27-16.11-32.03-13.91-50.01,2.19-17.98,11.25-34.04,25.52-45.2,14.27-11.17,32.03-16.12,50.01-13.92,7.94,.97,15.51,3.28,22.44,6.78,8.78,4.43,16.53,10.77,22.77,18.74,.88,1.14,1.73,2.3,2.55,3.49,9.06,13.18,13.12,28.96,11.53,44.97Z"/>
  <path class="cls-6" d="M377.18,246.7c-11.6,13.92-27.92,22.5-45.97,24.14-7.24,.66-14.42,.18-21.32-1.4-4.99-1.14-9.83-2.84-14.44-5.1-.36-.17-.71-.35-1.06-.53-4.5-2.28-8.77-5.09-12.74-8.4-4.88-4.06-9.11-8.7-12.6-13.78-.09-.14-.18-.26-.26-.4-6.15-9.08-10-19.57-11.19-30.73l26.76,11.26c2.74,6.06,6.84,11.47,12.1,15.85,9.17,7.64,20.75,11.25,32.63,10.16,11.88-1.09,22.63-6.73,30.27-15.9,7.63-9.17,11.24-20.76,10.15-32.63-1.07-11.88-6.72-22.63-15.89-30.27-9.17-7.64-20.76-11.24-32.64-10.15-2.99,.27-5.89,.83-8.7,1.66-.2,.06-.39,.12-.59,.18-.26-.36-.53-.7-.8-1.04-5.08-6.48-11.03-11.93-17.73-16.24,.19-.1,.37-.2,.57-.3,7.71-4.02,16.23-6.53,25.15-7.34,18.04-1.65,35.65,3.84,49.57,15.43,13.92,11.59,22.49,27.91,24.14,45.96s-3.84,35.65-15.42,49.57Z"/>
</svg>